<?xml version="1.0" encoding="utf-8"?>
<!-- Generator: Adobe Illustrator 24.1.2, SVG Export Plug-In . SVG Version: 6.00 Build 0)  -->
<svg version="1.1" id="Layer_1" xmlns="http://www.w3.org/2000/svg" xmlns:xlink="http://www.w3.org/1999/xlink" x="0px" y="0px"
	 viewBox="0 0 24 24" style="enable-background:new 0 0 24 24;" xml:space="preserve">
<style type="text/css">
	.st0{fill:#DCDDDE;}
</style>
<g id="_Group_2_1_">
	<g id="_Group_3_1_">
		<path id="_Path__1_" class="st0" d="M17.45,12.64c0.02-1.56,0.84-3,2.16-3.81c-0.84-1.2-2.2-1.94-3.67-1.98
			c-1.54-0.16-3.04,0.92-3.82,0.92c-0.8,0-2.01-0.91-3.31-0.88C7.1,6.94,5.54,7.89,4.71,9.39c-1.78,3.08-0.45,7.6,1.25,10.08
			C6.81,20.69,7.8,22.05,9.11,22c1.27-0.05,1.75-0.81,3.29-0.81c1.52,0,1.97,0.81,3.3,0.78c1.37-0.02,2.23-1.22,3.05-2.45
			c0.61-0.87,1.08-1.83,1.39-2.84C18.51,15.99,17.46,14.4,17.45,12.64z"/>
		<path id="_Path_2_1_" class="st0" d="M14.95,5.21c0.75-0.89,1.11-2.04,1.02-3.21c-1.14,0.12-2.19,0.66-2.95,1.52
			c-0.75,0.85-1.12,1.96-1.05,3.09C13.13,6.62,14.22,6.11,14.95,5.21z"/>
	</g>
</g>
</svg>
