<?xml version="1.0" standalone="no"?>
<!DOCTYPE svg PUBLIC "-//W3C//DTD SVG 1.1//EN" "http://www.w3.org/Graphics/SVG/1.1/DTD/svg11.dtd">
<svg width="100%" height="100%" viewBox="0 0 1469 1569" version="1.1" xmlns="http://www.w3.org/2000/svg" xmlns:xlink="http://www.w3.org/1999/xlink" xml:space="preserve" style="fill-rule:evenodd;clip-rule:evenodd;stroke-linejoin:round;stroke-miterlimit:1.41421;">
    <g transform="matrix(1,0,0,1,-849.999,-510.282)">
        <g>
            <g transform="matrix(1,0,0,1,274.561,-203.722)">
                <text x="889.162px" y="1832.23px" style="font-family:'Helvetica-Bold';font-size:816.324px;fill:black;">1<tspan x="1249.29px " y="1832.23px ">0</tspan></text>
            </g>
            <path d="M933.893,1344.71C933.893,1703.59 1225.26,1994.96 1584.14,1994.96C1943.02,1994.96 2234.38,1703.59 2234.38,1344.71C2234.38,985.829 1943.02,694.464 1584.14,694.464L1584.14,610.57C1989.32,610.57 2318.28,939.527 2318.28,1344.71C2318.28,1749.89 1989.32,2078.85 1584.14,2078.85C1178.96,2078.85 849.999,1749.89 849.999,1344.71L933.893,1344.71Z" style="fill:black;"/>
            <g transform="matrix(-1.60812e-16,-1,1,-1.60812e-16,417.514,1831.86)">
                <path d="M1176.86,877.192L1321.58,1166.62L1032.14,1166.62L1176.86,877.192Z" style="fill:black;"/>
            </g>
        </g>
    </g>
</svg>
