<?xml version="1.0" encoding="utf-8"?>
<!-- Generator: Adobe Illustrator 24.1.2, SVG Export Plug-In . SVG Version: 6.00 Build 0)  -->
<svg version="1.1" id="Layer_1" xmlns="http://www.w3.org/2000/svg" xmlns:xlink="http://www.w3.org/1999/xlink" x="0px" y="0px"
	 viewBox="0 0 24 24" style="enable-background:new 0 0 24 24;" xml:space="preserve">
<style type="text/css">
	.st0{fill:#DCDDDE;}
</style>
<g id="레이어_2_1_">
	<g id="레이어_1-2_1_">
		<g>
			<path class="st0" d="M15.83,9.02l-2.47,2.47L4.88,3.02C4.96,3,5.03,3,5.1,3c0.18,0,0.37,0.05,0.53,0.13L15.83,9.02z"/>
		</g>
		<g>
			<path class="st0" d="M12.87,11.98l-8.6,8.61c-0.13-0.18-0.22-0.4-0.21-0.62V4.04C4.05,3.81,4.13,3.58,4.28,3.39L12.87,11.98z"/>
		</g>
		<g>
			<path class="st0" d="M15.83,14.96l-10.21,5.9C5.46,20.95,5.27,21,5.09,21C5,21,4.92,21,4.84,20.98l8.51-8.51L15.83,14.96z"/>
		</g>
		<g>
			<path class="st0" d="M19.42,12.91l-2.94,1.7l-2.63-2.63l2.61-2.6l2.95,1.71c0.16,0.09,0.29,0.22,0.39,0.38
				C20.09,11.98,19.92,12.62,19.42,12.91z"/>
		</g>
	</g>
</g>
</svg>
